# xmcd CD database file
#
# Track frame offsets:
#	150
#	12846
#	23128
#	33761
#	44890
#	55799
#	66085
#	77445
#	90020
#	102115
#	114576
#	125107
#	135262
#	143718
#	154776
#
# Disc length: 2175 seconds
#
# Revision: 0
# Processed by: cddbd v1.5.1PL0 Copyright (c) Steve Scherf et al.
# Submitted via: CDex 1.51
#
DISCID=b4087d0f
DTITLE=Johnny Cash - Johnny Cash Collection Vol. 2
DYEAR=2003
DGENRE=Country
TTITLE0=I Walk the Line
TTITLE1=Goodbye Little Darling
TTITLE2=There You Go
TTITLE3=I Love You Because
TTITLE4=Train of Love
TTITLE5=Straight A's in Love
TTITLE6=Don't Make Me Go
TTITLE7=Next in Line
TTITLE8=Home of the Blues
TTITLE9=Give My Love to Rose
TTITLE10=The Ways of a Woman in Love
TTITLE11=Rock Island Line
TTITLE12=The Wreck of the Old 97
TTITLE13=Belshazzar
TTITLE14=Country Boy
EXTD=YEAR: 2003
EXTT0=
EXTT1=
EXTT2=
EXTT3=
EXTT4=
EXTT5=
EXTT6=
EXTT7=
EXTT8=
EXTT9=
EXTT10=
EXTT11=
EXTT12=
EXTT13=
EXTT14=
PLAYORDER=
